Coordinates
version=1
nRows=11
nColumns=46
inDegrees=yes

Units are S.I. units (second, meters, Newtons, ...)
Angles are in degrees.

endheader
time	pelvis_tilt	pelvis_list	pelvis_rotation	pelvis_tx	pelvis_ty	pelvis_tz	bb_angle	bb_tx	bb_ty	bb_tz	hip_flexion_r	hip_adduction_r	hip_rotation_r	knee_angle_r	knee_angle_r_beta	ankle_angle_r	subtalar_angle_r	mtp_angle_r	crank_angle_r	hip_flexion_l	hip_adduction_l	hip_rotation_l	knee_angle_l	knee_angle_l_beta	ankle_angle_l	subtalar_angle_l	mtp_angle_l	crank_angle_l	lumbar_extension	lumbar_bending	lumbar_rotation	arm_flex_r	arm_add_r	arm_rot_r	elbow_flex_r	pro_sup_r	wrist_flex_r	wrist_dev_r	arm_flex_l	arm_add_l	arm_rot_l	elbow_flex_l	pro_sup_l	wrist_flex_l	wrist_dev_l
      0.00500000	    -26.94971968	     -5.33554443	     -4.58287033	      0.17745254	      1.10763824	     -0.21959169	      0.00000000	      0.50000000	      0.00000000	      0.25000000	     90.20989329	      2.13976708	     -0.25697359	     88.06290907	      1.53698771	     22.73738077	     -6.41646055	      0.00000000	      0.00000000	     39.72984338	    -10.34120804	      2.90143860	     34.19410760	      0.59679976	     24.74683081	     -3.64712429	      0.00000000	      0.00000000	    -42.85686522	      3.59573087	      5.86910047	     89.53072548	     -3.87000677	     51.77106914	     25.30719790	     23.53621794	      0.00000000	      0.00000000	     89.67539550	     -5.05679233	     47.54027358	     22.72964226	     22.75708471	      0.00000000	      0.00000000
      0.01000000	    -27.02306384	     -5.42297377	     -4.58080739	      0.17748443	      1.10754127	     -0.21960746	      0.00000000	      0.50000000	      0.00000000	      0.25000000	     90.33760374	      2.13700517	     -0.34745181	     88.19613337	      1.53931291	     22.68093642	     -6.45094979	      0.00000000	      0.00000000	     39.57888900	    -10.43327726	      2.85816022	     33.72555594	      0.58862199	     24.82613060	     -3.47569746	      0.00000000	      0.00000000	    -42.76938880	      3.68963314	      5.92961981	     89.54130334	     -4.15883227	     52.73465372	     25.13083068	     25.23573839	      0.00000000	      0.00000000	     89.67861549	     -5.35979250	     48.75390651	     22.64185130	     23.91348941	      0.00000000	      0.00000000
      0.01500000	    -27.10125463	     -5.49932237	     -4.59106746	      0.17741169	      1.10742696	     -0.21957158	      0.00000000	      0.50000000	      0.00000000	      0.25000000	     90.48744419	      2.19183636	     -0.39644572	     88.33950244	      1.54181518	     22.58967406	     -6.56893070	      0.00000000	      0.00000000	     39.45458883	    -10.52648080	      2.79946687	     33.28555409	      0.58094251	     24.89151146	     -3.31962219	      0.00000000	      0.00000000	    -42.69561783	      3.75595243	      5.99684786	     89.54047169	     -4.18719485	     52.58703225	     24.73356190	     27.52004507	      0.00000000	      0.00000000	     89.67864515	     -5.35674324	     48.67971237	     22.33715043	     25.58551140	      0.00000000	      0.00000000
      0.02000000	    -26.84698492	     -5.37082833	     -4.38676538	      0.17751645	      1.10798287	     -0.22035678	      0.00000000	      0.50000000	      0.00000000	      0.25000000	     90.28773956	      1.91571724	     -0.22244711	     88.55980179	      1.54566013	     22.72937524	     -6.37731262	      0.00000000	      0.00000000	     39.08423880	    -10.28862493	      3.00117236	     33.07159144	      0.57720816	     24.93738845	     -3.60893655	      0.00000000	      0.00000000	    -43.04370956	      3.85706553	      5.74870907	     89.54945373	     -3.90030906	     51.44992799	     24.66972024	     28.24423082	      0.00000000	      0.00000000	     89.66563775	     -5.87744339	     48.06117911	     23.04717249	     26.43854701	      0.00000000	      0.00000000
      0.02500000	    -26.83348079	     -5.38534575	     -4.02793849	      0.17748614	      1.10795731	     -0.22137594	      0.00000000	      0.50000000	      0.00000000	      0.25000000	     90.33534230	      1.43649182	     -0.20261542	     88.69722611	      1.54805863	     22.71187691	     -6.09856785	      0.00000000	      0.00000000	     38.59593268	     -9.59619902	      4.49278620	     32.03557153	      0.55912620	     24.34115184	     -5.00301051	      0.00000000	      0.00000000	    -43.03352257	      4.19358480	      5.47961735	     89.55048557	     -3.64782549	     50.73686230	     24.37099964	     28.74431405	      0.00000000	      0.00000000	     89.68665630	     -5.15961755	     47.51239693	     21.96722123	     26.71207119	      0.00000000	      0.00000000
      0.03000000	    -26.89002088	     -5.66990788	     -3.87490179	      0.17734146	      1.10827930	     -0.22162701	      0.00000000	      0.50000000	      0.00000000	      0.25000000	     90.35983867	      1.35580112	     -0.49450607	     88.73824503	      1.54877455	     22.63183101	     -6.22644546	      0.00000000	      0.00000000	     38.22961716	     -9.48190200	      5.84924705	     31.11281280	      0.54302102	     23.91084632	     -6.26704606	      0.00000000	      0.00000000	    -43.04536638	      4.50340236	      5.60699320	     89.56676219	     -3.34865331	     49.94831836	     23.97981966	     29.06569683	      0.00000000	      0.00000000	     89.67929420	     -5.21314615	     47.32224950	     22.20839566	     27.07859610	      0.00000000	      0.00000000
      0.03500000	    -26.91882350	     -5.69202113	     -3.84005748	      0.17733851	      1.10832320	     -0.22162910	      0.00000000	      0.50000000	      0.00000000	      0.25000000	     90.42714552	      1.34142131	     -0.49285279	     88.82007484	      1.55020275	     22.54929093	     -6.35180860	      0.00000000	      0.00000000	     38.12904048	     -9.59622068	      5.49064510	     30.76538093	      0.53695719	     24.00364215	     -5.67351872	      0.00000000	      0.00000000	    -43.06361541	      4.55674952	      5.58496380	     89.55742169	     -2.82980250	     48.02027131	     23.28455908	     30.99254065	      0.00000000	      0.00000000	     89.67034234	     -5.05439270	     45.74444380	     21.94414321	     29.15243079	      0.00000000	      0.00000000
      0.04000000	    -26.97864421	     -5.75241787	     -3.79384287	      0.17718946	      1.10828513	     -0.22173441	      0.00000000	      0.50000000	      0.00000000	      0.25000000	     90.51141393	      1.26421603	     -0.54527167	     88.92077218	      1.55196025	     22.63740417	     -6.28027870	      0.00000000	      0.00000000	     38.09957839	     -9.75204178	      4.96474461	     30.43053397	      0.53111301	     24.05782052	     -5.03917781	      0.00000000	      0.00000000	    -42.98807501	      4.65213654	      5.59388389	     89.56821723	     -3.42570613	     49.97214131	     23.89557693	     30.01014257	      0.00000000	      0.00000000	     89.67819230	     -5.72735838	     48.38743349	     22.54195280	     27.75060123	      0.00000000	      0.00000000
      0.04500000	    -26.81257099	     -5.75039913	     -3.78709301	      0.17743348	      1.10860384	     -0.22172921	      0.00000000	      0.50000000	      0.00000000	      0.25000000	     90.35860640	      1.23329544	     -0.54834906	     89.05229563	      1.55425577	     22.76829636	     -6.07429152	      0.00000000	      0.00000000	     37.61364399	     -9.63830776	      5.40367813	     29.87970644	      0.52149926	     23.92354021	     -5.51931086	      0.00000000	      0.00000000	    -43.23221068	      4.62022669	      5.60259919	     89.55738210	     -3.34978022	     48.92807568	     24.09526064	     30.52688025	      0.00000000	      0.00000000	     89.66995388	     -5.69061281	     47.39053226	     22.88575308	     28.30932643	      0.00000000	      0.00000000
      0.05000000	    -26.90653018	     -5.75859248	     -3.75482702	      0.17742672	      1.10842546	     -0.22183384	      0.00000000	      0.50000000	      0.00000000	      0.25000000	     90.50121964	      1.15311459	     -0.57077469	     89.18611716	      1.55659139	     22.82605481	     -6.05852748	      0.00000000	      0.00000000	     37.60242706	     -9.66070046	      5.26385299	     29.59738744	      0.51657186	     23.92788499	     -5.25536031	      0.00000000	      0.00000000	    -43.06324079	      4.68627899	      5.58637367	     89.56807908	     -3.45013886	     49.95808382	     23.78182662	     30.99915387	      0.00000000	      0.00000000	     89.67851681	     -5.74929160	     48.55248721	     22.44956170	     28.31803505	      0.00000000	      0.00000000
      0.05500000	    -27.29851811	     -6.05951833	     -4.20065072	      0.17698876	      1.10763899	     -0.21966365	      0.00000000	      0.50000000	      0.00000000	      0.25000000	     90.93935086	      1.86527283	     -0.85483710	     89.17128906	      1.55633259	     22.69662433	     -6.39689504	      0.00000000	      0.00000000	     37.93455276	    -10.36327322	      4.99389804	     29.45830030	      0.51414433	     24.05909748	     -4.94570840	      0.00000000	      0.00000000	    -42.65738703	      4.60664880	      6.01116559	     89.54382245	     -3.75917826	     50.55342037	     24.06777695	     31.29445327	      0.00000000	      0.00000000	     89.67318456	     -5.69636040	     48.29379172	     22.12594568	     28.26675171	      0.00000000	      0.00000000
